<?xml version="1.0" encoding="UTF-8"?><svg id="a" xmlns="http://www.w3.org/2000/svg" viewBox="0 0 984.97 420.73"><text transform="translate(375.51 237.57)" fill="#03385a" font-family="IBMPlexSansThaiLooped-Bold, &apos;IBM Plex Sans Thai Looped&apos;" font-size="279.83" font-weight="700"><tspan x="0" y="0">MRA</tspan></text><text transform="translate(397.55 321.07)" fill="#03385a" font-family="IBMPlexSansThaiLooped-Bold, &apos;IBM Plex Sans Thai Looped&apos;" font-size="55.12" font-weight="700"><tspan x="0" y="0">Medical </tspan><tspan x="214.97" y="0" letter-spacing="-.02em">R</tspan><tspan x="251.29" y="0">e</tspan><tspan x="282.27" y="0" letter-spacing="0em">c</tspan><tspan x="310.49" y="0">o</tspan><tspan x="341.58" y="0" letter-spacing="0em">r</tspan><tspan x="363.63" y="0">d</tspan><tspan x="0" y="66.14">Audit S</tspan><tspan x="188.4" y="66.14" letter-spacing="0em">y</tspan><tspan x="217.34" y="66.14" letter-spacing="0em">s</tspan><tspan x="244.68" y="66.14" letter-spacing="0em">t</tspan><tspan x="265.57" y="66.14">em</tspan></text><rect x="807.29" y="296.2" width="163.07" height="49.38" fill="#eb028b"/><rect x="806.72" y="296.77" width="165.36" height="49.38" transform="translate(567.94 1210.86) rotate(-90)" fill="#eb028b"/><path d="M190.8,23.13C81.01,23.13,0,112.14,0,221.93s81.01,198.8,190.8,198.8,198.81-89,198.81-198.8S300.6,23.13,190.8,23.13ZM301.61,328.82c-.86.29-1.75.41-2.64.35v1.08c0,14.89-12.07,26.96-26.96,26.96H110.28c-14.88,0-26.95-12.07-26.95-26.96V114.61c0-14.89,12.07-26.96,26.95-26.96h121.3l67.39,67.39v33.51c1.98-.07,3.99.59,5.59,1.96,12.31,10.76,29.82,19.13,43.88,19.13,3.88,0,7.03,3.15,7.03,7.03v49.22c0,35.15-24.61,52.73-53.86,62.93Z" fill="#03385a"/><path d="M182.19,117.43h-26.96" fill="none" stroke="#03385a" stroke-linecap="round" stroke-linejoin="round" stroke-width="11"/><path d="M223.06,162.43h-107.82" fill="none" stroke="#03385a" stroke-linecap="round" stroke-linejoin="round" stroke-width="11"/><path d="M250.47,329.43H104.24" fill="none" stroke="#03385a" stroke-linecap="round" stroke-linejoin="round" stroke-width="11"/><path d="M217.47,296.43h-116" fill="none" stroke="#03385a" stroke-linecap="round" stroke-linejoin="round" stroke-width="11"/><path d="M250.47,188.43h-116" fill="none" stroke="#03385a" stroke-linecap="round" stroke-linejoin="round" stroke-width="11"/><path d="M355.47,216.67v49.22c0,35.15-24.61,52.73-53.86,62.93-.86.29-1.75.41-2.64.35-.7-.03-1.4-.18-2.07-.42-29.32-10.13-53.93-27.71-53.93-62.86v-49.22c0-3.88,3.15-7.03,7.03-7.03,14.06,0,31.64-8.44,43.88-19.13,1.46-1.26,3.27-1.91,5.09-1.96,1.98-.07,3.99.59,5.59,1.96,12.31,10.76,29.82,19.13,43.88,19.13,3.88,0,7.03,3.15,7.03,7.03Z" fill="#eb028b" stroke="#03385a" stroke-linecap="round" stroke-linejoin="round" stroke-width="10"/><path d="M278.13,258.86l14.06,14.06,28.12-28.12" fill="none" stroke="#03385a" stroke-linecap="round" stroke-linejoin="round" stroke-width="10"/></svg>